<svg width="38" height="42" viewBox="0 0 38 42" fill="none" xmlns="http://www.w3.org/2000/svg">
<path d="M2 9.5H5.75H35.75" stroke="#3C3D43" stroke-width="3.75" stroke-linecap="round" stroke-linejoin="round"/>
<path d="M11.375 9.5V5.75C11.375 4.75544 11.7701 3.80161 12.4734 3.09835C13.1766 2.39509 14.1304 2 15.125 2H22.625C23.6196 2 24.5734 2.39509 25.2766 3.09835C25.9799 3.80161 26.375 4.75544 26.375 5.75V9.5M32 9.5V35.75C32 36.7446 31.6049 37.6984 30.9016 38.4016C30.1984 39.1049 29.2446 39.5 28.25 39.5H9.5C8.50544 39.5 7.55161 39.1049 6.84835 38.4016C6.14509 37.6984 5.75 36.7446 5.75 35.75V9.5H32Z" stroke="#3C3D43" stroke-width="3.75" stroke-linecap="round" stroke-linejoin="round"/>
<path d="M15.125 18.875V30.125" stroke="#3C3D43" stroke-width="3.75" stroke-linecap="round" stroke-linejoin="round"/>
<path d="M22.625 18.875V30.125" stroke="#3C3D43" stroke-width="3.75" stroke-linecap="round" stroke-linejoin="round"/>
</svg>
